<svg xmlns="http://www.w3.org/2000/svg" viewBox="0 0 400 520">
  <defs>
    <linearGradient id="bg" x1="0" y1="0" x2="0.3" y2="1">
      <stop offset="0%" stop-color="#0c1a30"/>
      <stop offset="100%" stop-color="#041020"/>
    </linearGradient>
    <linearGradient id="ac" x1="0" y1="0" x2="1" y2="1">
      <stop offset="0%" stop-color="#013795"/>
      <stop offset="100%" stop-color="#01FDFE"/>
    </linearGradient>
    <filter id="glow"><feGaussianBlur stdDeviation="8" result="b"/><feMerge><feMergeNode in="b"/><feMergeNode in="SourceGraphic"/></feMerge></filter>
  </defs>
  <rect width="400" height="520" fill="url(#bg)"/>
  <circle cx="200" cy="230" r="100" fill="none" stroke="url(#ac)" stroke-width="1" opacity="0.12"/>
  <circle cx="200" cy="230" r="65" fill="none" stroke="url(#ac)" stroke-width="1" opacity="0.08"/>
  <g transform="translate(176,206) scale(2)" fill="none" stroke="url(#ac)" stroke-width="1.5" stroke-linecap="round" stroke-linejoin="round" filter="url(#glow)" opacity="0.7">
    <path d="M3 8l7.89 5.26a2 2 0 002.22 0L21 8M5 19h14a2 2 0 002-2V7a2 2 0 00-2-2H5a2 2 0 00-2 2v10a2 2 0 002 2z"/>
  </g>
  <rect x="60" y="420" width="280" height="1" fill="url(#ac)" opacity="0.15"/>
</svg>