<svg xmlns="http://www.w3.org/2000/svg" viewBox="0 0 400 520">
  <defs>
    <linearGradient id="bg" x1="0" y1="0" x2="0.3" y2="1">
      <stop offset="0%" stop-color="#0c1a30"/>
      <stop offset="100%" stop-color="#041020"/>
    </linearGradient>
    <linearGradient id="ac" x1="0" y1="0" x2="1" y2="1">
      <stop offset="0%" stop-color="#FD67EB"/>
      <stop offset="100%" stop-color="#5B2FB8"/>
    </linearGradient>
    <filter id="glow"><feGaussianBlur stdDeviation="8" result="b"/><feMerge><feMergeNode in="b"/><feMergeNode in="SourceGraphic"/></feMerge></filter>
  </defs>
  <rect width="400" height="520" fill="url(#bg)"/>
  <circle cx="200" cy="230" r="100" fill="none" stroke="url(#ac)" stroke-width="1" opacity="0.12"/>
  <circle cx="200" cy="230" r="65" fill="none" stroke="url(#ac)" stroke-width="1" opacity="0.08"/>
  <g transform="translate(176,206) scale(2)" fill="none" stroke="url(#ac)" stroke-width="1.5" stroke-linecap="round" stroke-linejoin="round" filter="url(#glow)" opacity="0.7">
    <path d="M11 5.882V19.24a1.76 1.76 0 01-3.417.592l-2.147-6.15M18 13a3 3 0 100-6M5.436 13.683A4.001 4.001 0 017 6h1.832c4.1 0 7.625-1.234 9.168-3v14c-1.543-1.766-5.067-3-9.168-3H7a3.988 3.988 0 01-1.564-.317z"/>
  </g>
  <rect x="60" y="420" width="280" height="1" fill="url(#ac)" opacity="0.15"/>
</svg>