<svg xmlns="http://www.w3.org/2000/svg" viewBox="0 0 400 520">
  <defs>
    <linearGradient id="bg" x1="0" y1="0" x2="0.3" y2="1">
      <stop offset="0%" stop-color="#0c1a30"/>
      <stop offset="100%" stop-color="#041020"/>
    </linearGradient>
    <linearGradient id="ac" x1="0" y1="0" x2="1" y2="1">
      <stop offset="0%" stop-color="#01FDFE"/>
      <stop offset="100%" stop-color="#5B2FB8"/>
    </linearGradient>
    <filter id="glow"><feGaussianBlur stdDeviation="8" result="b"/><feMerge><feMergeNode in="b"/><feMergeNode in="SourceGraphic"/></feMerge></filter>
  </defs>
  <rect width="400" height="520" fill="url(#bg)"/>
  <circle cx="200" cy="230" r="100" fill="none" stroke="url(#ac)" stroke-width="1" opacity="0.12"/>
  <circle cx="200" cy="230" r="65" fill="none" stroke="url(#ac)" stroke-width="1" opacity="0.08"/>
  <g transform="translate(176,206) scale(2)" fill="none" stroke="url(#ac)" stroke-width="1.5" stroke-linecap="round" stroke-linejoin="round" filter="url(#glow)" opacity="0.7">
    <path d="M9 19v-6a2 2 0 00-2-2H5a2 2 0 00-2 2v6a2 2 0 002 2h2a2 2 0 002-2zm0 0V9a2 2 0 012-2h2a2 2 0 012 2v10m-6 0a2 2 0 002 2h2a2 2 0 002-2m0 0V5a2 2 0 012-2h2a2 2 0 012 2v14a2 2 0 01-2 2h-2a2 2 0 01-2-2z"/>
  </g>
  <rect x="60" y="420" width="280" height="1" fill="url(#ac)" opacity="0.15"/>
</svg>